<?xml version="1.0" standalone="no"?>
<!DOCTYPE svg PUBLIC "-//W3C//DTD SVG 20010904//EN"
 "http://www.w3.org/TR/2001/REC-SVG-20010904/DTD/svg10.dtd">
<svg version="1.0" xmlns="http://www.w3.org/2000/svg"
 width="406.000000pt" height="600.000000pt" viewBox="0 0 406.000000 600.000000"
 preserveAspectRatio="xMidYMid meet">

<g transform="translate(0.000000,600.000000) scale(0.100000,-0.100000)"
fill="#000000" stroke="none">
<path d="M0 3000 l0 -3000 443 0 c307 0 446 3 454 11 8 8 17 8 31 0 15 -8 470
-11 1576 -11 l1556 0 0 3000 0 3000 -2030 0 -2030 0 0 -3000z m1864 2435 c6
-17 33 -20 38 -5 5 15 152 14 180 -1 13 -7 29 -12 35 -11 7 2 25 -4 40 -12 25
-13 26 -15 9 -22 -11 -4 -21 -2 -26 6 -6 10 -15 10 -38 2 -24 -8 -30 -8 -26 2
10 25 -95 37 -114 13 -7 -8 -32 -12 -65 -12 -41 1 -54 -2 -50 -12 6 -16 14
-16 47 -3 17 6 26 6 26 0 0 -6 -6 -10 -12 -11 -10 0 -10 -2 0 -6 10 -4 10 -8
0 -21 -11 -14 -10 -15 5 -9 42 16 69 19 105 11 l37 -8 -55 -8 c-55 -8 -300
-29 -332 -29 -26 0 -22 -14 7 -27 30 -14 38 -15 31 -4 -2 4 16 8 42 9 26 1 67
4 92 7 25 3 36 3 25 0 -11 -3 -37 -10 -57 -15 -37 -10 -52 -29 -23 -29 21 0
19 -17 -3 -29 -11 -6 -36 -6 -65 0 -42 7 -51 6 -83 -16 -42 -29 -53 -31 -60
-11 -8 20 -77 9 -131 -22 -47 -26 -52 -49 -9 -44 36 4 33 -5 -10 -23 -38 -16
-84 -58 -84 -77 0 -6 -3 -9 -6 -5 -9 8 16 77 28 77 5 0 8 6 5 13 -4 12 23 58
52 88 9 9 38 40 66 70 64 69 212 146 298 156 38 4 57 10 57 19 0 19 16 18 24
-1z m356 -60 c0 -8 -4 -15 -9 -15 -5 0 -11 7 -15 15 -3 9 0 15 9 15 8 0 15 -7
15 -15z m-213 -1 c-3 -3 -12 -4 -19 -1 -8 3 -5 6 6 6 11 1 17 -2 13 -5z m272
-51 c18 -36 36 -44 28 -13 -3 11 -3 20 0 20 3 0 31 -19 63 -42 45 -33 67 -59
94 -110 20 -38 32 -70 26 -73 -6 -4 -5 -13 2 -24 7 -12 8 -64 2 -182 l-9 -164
26 -26 c50 -47 51 -123 3 -228 -32 -74 -59 -93 -135 -96 -66 -3 -85 10 -75 50
11 45 -20 28 -42 -22 -24 -59 -37 -104 -24 -84 8 11 16 10 51 -5 22 -10 41
-23 41 -28 1 -6 7 3 15 19 l14 30 -4 -40 c-13 -121 -14 -166 -6 -226 7 -56 17
-80 60 -144 56 -85 71 -127 71 -195 -1 -92 -14 -126 -65 -172 -142 -127 -526
-401 -555 -396 -14 3 -75 92 -104 153 -52 108 -76 190 -76 260 0 66 -14 173
-24 183 -3 2 -13 -1 -23 -7 -17 -10 -17 -10 0 -11 10 0 16 -4 12 -10 -3 -5
-12 -7 -19 -4 -7 3 -19 -2 -26 -11 -16 -20 -23 -19 -37 4 -11 18 -7 22 43 45
60 28 60 29 38 109 -6 20 0 21 29 6 30 -16 51 -45 83 -109 15 -30 37 -68 50
-83 13 -16 24 -38 24 -49 0 -11 8 -28 18 -37 10 -9 21 -24 25 -35 5 -11 13
-16 23 -12 9 3 24 6 34 6 26 0 70 50 70 78 0 14 11 33 25 43 13 11 22 26 19
33 -3 8 -1 17 5 20 6 4 8 13 5 20 -3 7 2 19 11 26 17 14 21 50 5 50 -6 0 -20
8 -31 19 -17 16 -18 20 -4 31 20 17 45 5 46 -22 2 -22 2 -22 6 2 3 13 15 34
26 46 33 31 57 63 57 74 0 6 5 10 10 10 7 0 8 13 4 35 -5 29 -1 40 25 72 31
38 39 75 21 103 -7 11 -12 12 -21 3 -6 -6 -18 -9 -25 -6 -9 3 -14 -2 -14 -13
0 -16 -2 -17 -10 -4 -8 12 -10 11 -10 -7 0 -13 -4 -23 -10 -23 -5 0 -10 -7
-10 -15 0 -8 -4 -15 -9 -15 -4 0 -28 -16 -52 -35 -24 -19 -49 -35 -56 -35 -7
0 -21 -10 -33 -22 -11 -12 -23 -18 -27 -15 -3 4 -16 1 -28 -7 -33 -22 -136
-46 -192 -46 -28 0 -72 -7 -98 -15 -57 -17 -59 -16 -94 78 -13 34 -34 82 -47
108 -12 25 -48 103 -80 175 l-57 129 -3 135 c-2 74 -4 147 -5 163 -2 35 4 41
36 33 l26 -7 -26 -31 c-27 -32 -27 -44 -6 -101 10 -26 47 -42 55 -23 2 6 5 3
5 -7 1 -14 5 -16 20 -7 11 5 23 19 26 30 9 27 35 25 35 -2 1 -20 4 -18 20 12
16 29 19 49 15 112 -5 71 -3 78 16 88 11 7 27 9 35 6 9 -4 19 4 26 19 6 14 14
25 18 25 3 0 24 17 45 38 22 20 55 45 75 54 20 10 28 17 18 18 -25 0 -22 15 5
27 15 7 29 8 38 2 11 -7 10 -9 -5 -9 -14 0 -16 -3 -8 -13 8 -10 7 -27 -3 -63
-15 -49 -15 -49 4 -24 20 25 32 65 35 110 1 16 8 26 21 28 11 2 26 11 33 20
11 14 12 13 12 -7 0 -14 7 -25 19 -28 24 -6 61 -81 61 -124 0 -16 5 -39 11
-50 10 -19 11 -19 40 5 34 29 77 27 144 -7 41 -21 85 -25 121 -13 23 7 104
-20 104 -35 0 -5 7 -9 15 -9 8 0 15 -4 15 -10 0 -5 4 -10 8 -10 5 0 10 30 11
68 1 37 6 93 12 125 11 61 6 91 -18 118 -7 9 -13 20 -12 25 4 19 -14 44 -31
44 -10 0 -21 8 -24 18 -9 28 -46 58 -89 72 -20 6 -35 15 -32 20 8 13 -13 60
-26 58 -6 -2 -14 3 -16 10 -11 29 31 6 46 -25z m-21 -32 c3 -8 0 -11 -5 -8 -5
4 -8 -7 -5 -26 6 -42 -13 -24 -23 21 -6 29 -4 33 11 30 9 -1 19 -9 22 -17z
m-383 -46 c-27 -8 -51 -14 -52 -15 -2 0 -3 4 -3 9 0 10 33 17 80 19 14 0 3 -6
-25 -13z m118 8 c-7 -2 -21 -2 -30 0 -10 3 -4 5 12 5 17 0 24 -2 18 -5z m217
-9 c0 -8 -4 -12 -10 -9 -5 3 -10 10 -10 16 0 5 5 9 10 9 6 0 10 -7 10 -16z
m-54 -23 c-1 -16 -4 -27 -8 -24 -5 2 -8 -14 -8 -36 0 -22 -5 -43 -10 -46 -13
-8 -1 105 13 123 13 17 14 16 13 -17z m-209 -7 c-3 -3 -12 -4 -19 -1 -8 3 -5
6 6 6 11 1 17 -2 13 -5z m15 -35 c-13 -5 -38 -11 -55 -14 -18 -3 -39 -8 -47
-10 -30 -9 -180 -14 -185 -6 -6 11 50 19 141 21 39 0 84 5 100 10 16 4 38 8
49 9 17 0 17 -1 -3 -10z m-425 -15 c-3 -3 -12 -4 -19 -1 -8 3 -5 6 6 6 11 1
17 -2 13 -5z m532 -40 c11 -14 17 -32 14 -41 -5 -14 -8 -14 -20 3 -7 10 -13
24 -13 31 0 7 -4 13 -10 13 -5 0 -10 5 -10 10 0 18 18 11 39 -16z m-386 -41
c-7 -2 -19 -2 -25 0 -7 3 -2 5 12 5 14 0 19 -2 13 -5z m150 0 c-7 -2 -19 -2
-25 0 -7 3 -2 5 12 5 14 0 19 -2 13 -5z m221 -58 c-4 -8 -8 -15 -10 -15 -2 0
-4 7 -4 15 0 8 4 15 10 15 5 0 7 -7 4 -15z m-656 -54 c-13 -15 -25 -27 -27
-25 -4 4 39 54 47 54 2 0 -7 -13 -20 -29z m72 -91 c0 -25 -5 -31 -36 -39 -20
-6 -45 -17 -55 -27 -17 -15 -17 -15 -10 12 5 19 15 30 29 32 12 2 22 8 22 14
0 15 33 47 43 41 4 -2 7 -17 7 -33z m-85 9 c7 -10 -24 -53 -32 -45 -2 2 -1 15
3 30 6 27 18 33 29 15z m115 -198 c0 -3 -21 -7 -47 -7 -39 -1 -44 0 -30 10 16
12 77 10 77 -3z m970 -780 c0 -5 14 -14 30 -21 36 -15 40 -29 5 -23 -24 5 -65
53 -45 53 5 0 10 -4 10 -9z m88 -87 c12 -8 22 -19 22 -23 0 -10 -69 21 -70 32
0 12 24 8 48 -9z m207 -104 c-3 -5 -13 -10 -21 -10 -8 0 -14 5 -14 10 0 6 9
10 21 10 11 0 17 -4 14 -10z m100 -10 c3 -5 2 -10 -4 -10 -5 0 -13 5 -16 10
-3 6 -2 10 4 10 5 0 13 -4 16 -10z m-1335 -24 c-8 -8 -62 -33 -120 -57 -115
-46 -134 -56 -164 -82 -19 -17 -21 -17 -24 -2 -3 13 -11 16 -35 11 -41 -8 -57
-24 -37 -36 18 -11 18 -11 -50 -39 -30 -13 -58 -29 -62 -35 -6 -8 -8 -7 -8 1
0 7 23 24 50 38 61 31 66 42 8 16 -24 -11 -60 -27 -81 -36 -20 -9 -35 -20 -32
-26 4 -5 -1 -19 -9 -31 -16 -22 -16 -22 -16 14 0 35 4 39 68 77 73 44 141 71
177 71 13 0 25 4 27 9 6 17 131 73 138 62 4 -8 31 0 81 23 81 39 114 46 89 22z
m1284 3 c-3 -5 -16 -9 -30 -9 -14 0 -23 4 -20 9 3 5 17 9 31 9 13 0 22 -4 19
-9z m62 -25 c28 -7 32 -24 7 -24 -35 0 -63 13 -63 27 0 10 6 13 16 9 9 -3 27
-9 40 -12z m115 -16 c63 -29 86 -52 48 -47 -13 2 -29 0 -35 -4 -7 -4 -19 4
-28 18 -9 13 -26 34 -38 46 -25 24 -26 24 53 -13z m-40 -39 c22 -31 22 -31 1
-20 -11 6 -24 16 -27 21 -4 6 -11 8 -16 5 -5 -4 -9 -2 -9 4 0 5 6 12 13 14 6
3 13 6 14 6 1 1 12 -13 24 -30z m393 -136 c38 -33 96 -117 96 -138 0 -5 -18
16 -39 46 -22 30 -56 67 -75 82 -35 27 -95 57 -115 57 -5 0 -27 -23 -49 -50
-42 -53 -45 -53 -56 -7 -3 15 -11 27 -16 27 -13 0 -13 -17 1 -22 5 -2 7 -11 3
-21 -6 -16 -8 -14 -20 9 -18 34 -18 40 4 48 9 4 32 15 50 24 l33 18 -36 17
c-19 9 -35 21 -35 26 0 18 211 -78 254 -116z m-254 92 c29 -34 -38 -54 -70
-20 -11 12 -20 24 -20 28 0 14 78 7 90 -8z m-110 -65 c0 -5 -2 -10 -4 -10 -3
0 -8 5 -11 10 -3 6 -1 10 4 10 6 0 11 -4 11 -10z m-1387 -75 c4 -8 2 -17 -3
-20 -6 -4 -10 3 -10 14 0 25 6 27 13 6z m1662 -5 c3 -5 1 -10 -4 -10 -6 0 -11
5 -11 10 0 6 2 10 4 10 3 0 8 -4 11 -10z m-1702 -30 c-13 -10 -23 -24 -23 -32
0 -10 -3 -9 -10 2 -7 11 -3 20 17 37 15 12 30 20 33 17 3 -3 -5 -14 -17 -24z
m-253 -4 c0 -2 -8 -10 -17 -17 -16 -13 -17 -12 -4 4 13 16 21 21 21 13z m259
-60 c-7 -14 -16 -26 -21 -26 -5 0 -1 14 7 31 20 37 31 33 14 -5z m43 -8 c-8
-8 -9 -4 -5 13 4 13 8 18 11 10 2 -7 -1 -18 -6 -23z m-372 18 c0 -2 -7 -6 -15
-10 -8 -3 -15 -1 -15 4 0 6 7 10 15 10 8 0 15 -2 15 -4z m105 -46 c3 -5 1 -10
-4 -10 -6 0 -11 5 -11 10 0 6 2 10 4 10 3 0 8 -4 11 -10z m91 -25 c-22 -17
-36 -19 -36 -7 0 14 12 22 34 22 21 -1 21 -1 2 -15z m24 -40 c-7 -8 -17 -15
-22 -15 -6 0 -5 7 2 15 7 8 17 15 22 15 6 0 5 -7 -2 -15z m80 8 c0 -20 -53
-81 -66 -76 -11 4 -9 11 11 29 14 13 25 30 25 39 0 8 7 15 15 15 8 0 15 -3 15
-7z m1979 -54 c14 -42 14 -48 -2 -24 -19 29 -28 55 -18 55 5 0 14 -14 20 -31z
m-2074 -39 c-7 -11 -105 -63 -105 -56 0 6 92 66 102 66 5 0 6 -5 3 -10z m-139
-83 c-50 -38 -111 -68 -115 -56 -2 6 2 16 8 22 6 6 11 19 11 29 0 11 7 18 20
18 11 0 20 -5 20 -11 0 -5 10 -3 22 5 12 9 32 16 43 16 18 -1 17 -3 -9 -23z
m2264 -15 c0 -15 -2 -15 -10 -2 -13 20 -13 33 0 25 6 -3 10 -14 10 -23z
m-2388 -26 c-3 -27 -12 -38 -43 -55 -21 -12 -45 -32 -54 -44 -8 -12 -15 -17
-15 -11 0 6 15 27 33 46 17 20 43 50 57 67 14 17 25 31 25 31 1 0 -1 -15 -3
-34z m1278 -234 c150 -90 103 -334 -72 -371 -138 -30 -250 60 -250 200 0 94
60 168 159 195 61 17 106 10 163 -24z m1206 -38 c11 -38 14 -71 9 -105 -8 -54
3 -64 30 -26 13 19 17 20 25 7 31 -49 -162 -163 -299 -176 -67 -6 -119 15
-139 58 -46 98 162 298 310 298 l47 0 17 -56z m-2470 -74 c8 0 50 11 92 24 93
30 161 43 147 28 -5 -5 -44 -24 -86 -41 -42 -18 -97 -45 -123 -61 -26 -17 -53
-30 -60 -30 -30 0 -34 62 -9 118 l17 37 4 -37 c2 -25 8 -38 18 -38z m-390
-137 c-17 -81 -26 -102 -26 -61 0 27 19 134 27 158 15 38 13 -25 -1 -97z
m2996 -65 c20 -32 42 -88 36 -93 -2 -3 -18 -8 -35 -11 -28 -6 -32 -3 -52 38
-26 54 -27 75 -3 81 33 9 40 7 54 -15z m-69 -66 c28 -41 30 -78 4 -70 -6 2
-20 21 -30 41 -20 39 -34 47 -44 22 -7 -20 50 -105 118 -175 l54 -55 -4 -70
c-7 -118 -6 -163 2 -171 4 -5 12 -2 17 6 19 30 151 -119 171 -195 13 -46 -1
-82 -40 -101 -12 -7 -28 -17 -34 -23 -22 -22 -37 -12 -37 23 0 19 -4 38 -10
41 -5 3 -10 1 -10 -4 0 -6 -4 -11 -10 -11 -5 0 -10 6 -10 13 0 6 -16 25 -36
41 -20 15 -40 41 -46 56 -5 15 -18 30 -29 33 -20 5 -27 37 -8 37 5 0 7 5 3 11
-4 8 -12 2 -21 -14 -12 -25 -43 -29 -43 -6 0 5 -11 9 -25 9 -14 0 -43 13 -65
29 -22 16 -60 35 -85 42 -25 7 -45 16 -45 20 0 12 -60 18 -86 9 -20 -8 -33 -6
-58 9 -43 26 -164 60 -205 58 -40 -2 -57 26 -37 64 10 22 18 24 71 23 80 -2
261 -44 308 -72 47 -27 52 -27 63 -1 10 21 10 21 29 3 10 -10 25 -19 34 -19 9
0 15 -6 14 -12 -2 -7 13 -19 32 -27 19 -8 35 -22 35 -30 0 -15 45 -56 61 -56
10 0 12 51 3 74 -4 10 -18 16 -39 16 -27 0 -37 6 -54 36 -12 20 -30 38 -41 41
-10 3 -21 11 -24 19 -3 8 -12 14 -21 14 -8 0 -15 7 -15 15 0 20 -46 30 -65 15
-8 -7 -15 -9 -15 -4 0 5 -14 10 -30 11 -17 1 -43 9 -58 17 -15 7 -54 22 -86
32 -68 22 -88 38 -84 68 4 30 45 47 89 37 27 -6 45 -4 74 10 22 11 48 16 61
13 19 -5 24 -2 24 14 0 13 12 26 32 36 42 21 42 21 61 -19 22 -45 40 -46 21 0
-7 19 -14 40 -14 47 1 26 29 49 64 52 20 1 42 8 48 14 20 20 40 10 71 -36z
m-3303 -101 c16 -31 12 -41 -16 -41 -18 0 -39 -13 -64 -40 -20 -22 -35 -42
-32 -45 3 -3 22 -5 42 -5 51 0 98 -18 111 -42 9 -16 7 -26 -8 -47 -15 -21 -17
-32 -9 -53 8 -23 16 -28 41 -28 36 0 69 -29 63 -57 -2 -11 -12 -17 -23 -16
-10 1 -24 -5 -29 -13 -11 -14 -89 -24 -226 -28 -69 -2 -81 -6 -144 -45 -78
-48 -100 -45 -77 12 15 36 15 45 6 104 -6 34 -4 47 13 68 11 14 30 46 42 70
28 58 43 69 104 75 l51 5 5 49 c4 42 10 52 40 72 44 29 95 31 110 5z m975
-158 c13 -29 23 -29 30 0 5 20 13 23 56 24 39 1 54 -4 72 -23 27 -29 37 -30
37 -3 0 32 34 19 40 -16 l5 -29 18 27 c17 27 50 36 62 17 4 -6 15 -6 31 0 33
13 91 -11 103 -42 9 -24 10 -24 26 27 9 30 35 4 35 -35 0 -30 4 -39 22 -43 28
-8 29 -7 35 43 4 31 10 40 22 38 14 -3 16 -18 13 -96 -1 -51 -1 -92 2 -92 2 0
21 41 42 90 36 87 51 104 71 78 10 -13 63 -171 63 -189 0 -20 -31 -8 -40 16
-8 20 -16 25 -46 25 -27 0 -37 -5 -41 -19 -4 -15 -14 -19 -49 -19 l-44 0 0 39
c0 37 -2 39 -30 39 -28 0 -30 -3 -30 -35 0 -28 -4 -35 -20 -35 -16 0 -20 7
-20 31 l0 32 -26 -27 c-28 -27 -84 -35 -114 -16 -9 5 -19 5 -27 -2 -10 -8 -20
-2 -42 21 -29 31 -30 31 -33 9 -2 -13 -11 -24 -20 -26 -14 -3 -18 3 -18 24 l0
27 -23 -21 c-44 -41 -97 -21 -117 44 -8 27 -8 26 -9 -13 -1 -31 -5 -43 -16
-43 -10 0 -15 10 -15 33 -1 51 -17 108 -40 139 l-22 30 24 -4 c12 -2 27 -13
33 -25z m1795 13 c0 -8 -4 -18 -10 -21 -5 -3 -10 3 -10 14 0 12 5 21 10 21 6
0 10 -6 10 -14z m-921 -116 c13 -38 27 -67 31 -65 4 3 18 32 30 65 19 50 26
60 46 60 24 0 24 -2 24 -95 0 -88 -1 -95 -20 -95 -17 0 -20 7 -21 53 l-1 52
-24 -53 c-29 -65 -51 -66 -74 -5 -23 61 -30 62 -30 5 0 -45 -3 -52 -20 -52
-18 0 -20 7 -20 54 0 29 3 74 6 100 6 38 10 46 28 46 18 0 26 -13 45 -70z
m274 -19 c32 -106 32 -101 7 -101 -13 0 -20 7 -20 20 0 16 -7 20 -35 20 -29 0
-37 -5 -45 -25 -5 -14 -17 -25 -26 -25 -8 0 -14 3 -12 8 2 4 18 49 37 100 44
121 58 122 94 3z m-1838 59 c-3 -5 -11 -10 -16 -10 -6 0 -7 5 -4 10 3 6 11 10
16 10 6 0 7 -4 4 -10z m2805 -10 c0 -5 -6 -10 -14 -10 -8 0 -18 5 -21 10 -3 6
3 10 14 10 12 0 21 -4 21 -10z m-2784 -95 c8 -20 39 -54 75 -82 104 -82 148
-130 141 -157 -8 -28 -69 -81 -74 -65 -6 17 -56 -1 -63 -22 -12 -38 -130 -18
-176 30 -16 17 -37 31 -47 31 -32 0 -113 32 -109 43 2 6 16 14 31 18 30 8 56
27 56 40 0 15 -42 10 -60 -6 -22 -19 -174 -64 -220 -65 -53 0 -125 -25 -128
-44 -4 -21 -38 -21 -46 0 -13 33 -4 44 86 104 l92 61 103 9 c108 8 121 13 198
75 45 36 94 64 113 65 7 0 20 -16 28 -35z m2534 -71 c135 -45 168 -53 184 -44
20 12 36 0 36 -28 0 -7 29 -27 65 -44 64 -32 84 -58 45 -58 -12 0 -42 11 -68
24 -58 29 -112 40 -174 37 -27 -2 -62 4 -85 14 -21 9 -53 23 -71 31 -18 8 -41
14 -51 14 -10 0 -30 12 -45 27 -21 21 -29 24 -36 14 -11 -19 -30 -4 -30 24 0
30 28 58 49 50 9 -4 90 -31 181 -61z m-2063 -46 c-3 -8 -6 -5 -6 6 -1 11 2 17
5 13 3 -3 4 -12 1 -19z m964 -26 l10 -25 22 21 c22 20 89 28 130 16 24 -7 21
-40 -5 -58 -19 -13 -20 -19 -10 -41 10 -22 9 -25 -9 -25 -13 0 -23 8 -26 21
-6 21 -6 21 -24 -2 -27 -36 -35 -14 -15 42 10 27 16 52 14 55 -8 7 -88 -84
-88 -101 0 -8 -7 -15 -16 -15 -13 0 -15 7 -10 34 4 18 2 45 -3 59 -8 19 -15
23 -35 20 -19 -4 -29 -16 -43 -55 -17 -47 -36 -68 -49 -55 -4 3 2 27 12 53 13
35 15 49 6 52 -7 2 -12 10 -12 18 0 12 14 14 71 12 65 -2 72 -4 80 -26z m407
11 c2 -9 -7 -13 -27 -13 -35 0 -41 -15 -11 -25 40 -13 16 -68 -35 -81 -28 -7
-45 1 -45 21 0 20 21 30 30 15 9 -14 40 -7 40 9 0 5 -9 13 -20 16 -28 9 -26
49 3 63 27 14 59 11 65 -5z m-103 -2 c-6 -5 -21 -11 -34 -13 -34 -4 -40 -28
-7 -28 37 0 32 -18 -6 -22 -22 -2 -34 -9 -36 -21 -3 -13 1 -18 15 -15 10 1 20
-2 23 -7 3 -6 -14 -11 -37 -13 -48 -3 -50 0 -29 55 8 21 17 46 20 56 4 13 16
17 53 17 29 0 43 -4 38 -9z m732 -93 c56 -38 132 -68 173 -68 22 0 33 6 40 23
l9 22 0 -22 c1 -25 48 -50 105 -58 66 -8 83 -25 45 -46 -22 -11 -57 -9 -144
10 -27 6 -69 9 -91 5 -32 -4 -54 0 -95 19 -30 13 -69 30 -87 37 -48 19 -69 69
-40 98 19 19 36 15 85 -20z m-2743 -19 c14 -7 27 -18 30 -25 8 -21 -30 -79
-61 -93 -16 -8 -36 -17 -45 -22 -47 -24 -108 -39 -159 -39 -60 0 -69 7 -69 56
0 25 -4 24 97 28 52 3 56 6 44 39 -12 30 -2 40 49 55 48 14 84 14 114 1z m966
-49 c0 -5 -5 -10 -11 -10 -5 0 -7 5 -4 10 3 6 8 10 11 10 2 0 4 -4 4 -10z
m-58 -62 c-7 -7 -12 -8 -12 -2 0 6 3 14 7 17 3 4 9 5 12 2 2 -3 -1 -11 -7 -17z
m-37 -28 c-10 -11 -23 -20 -28 -20 -6 0 -2 9 8 20 10 11 23 20 28 20 6 0 2 -9
-8 -20z m-67 -28 c9 -6 6 -12 -13 -20 -27 -12 -28 -12 -19 12 7 18 13 19 32 8z
m2312 -74 c0 -6 -10 -8 -22 -4 -13 3 -29 6 -35 6 -7 0 -13 4 -13 8 0 4 16 6
35 4 19 -2 35 -9 35 -14z m-590 -508 c0 -5 -4 -10 -10 -10 -5 0 -10 5 -10 10
0 6 5 10 10 10 6 0 10 -4 10 -10z m40 -70 c0 -5 -4 -10 -10 -10 -5 0 -10 5
-10 10 0 6 5 10 10 10 6 0 10 -4 10 -10z m18 -147 c17 -3 32 -10 32 -16 0 -15
-81 -1 -99 19 -15 15 -14 16 9 10 14 -4 40 -9 58 -13z m-1955 -343 c3 -11 1
-18 -4 -14 -5 3 -9 12 -9 20 0 20 7 17 13 -6z m2012 2 c-3 -3 -11 0 -18 7 -9
10 -8 11 6 5 10 -3 15 -9 12 -12z m-2025 -58 c0 -8 -4 -12 -10 -9 -5 3 -10 10
-10 16 0 5 5 9 10 9 6 0 10 -7 10 -16z m1795 -14 c10 -11 16 -20 13 -20 -3 0
-13 9 -23 20 -10 11 -16 20 -13 20 3 0 13 -9 23 -20z m-100 -15 c-30 -13 -45
-11 -45 6 0 5 17 9 38 8 l37 -1 -30 -13z m-98 -17 c-3 -8 -6 -5 -6 6 -1 11 2
17 5 13 3 -3 4 -12 1 -19z m-1627 -10 c0 -16 -3 -19 -11 -11 -6 6 -8 16 -5 22
11 17 16 13 16 -11z m40 -8 c0 -5 -5 -10 -11 -10 -5 0 -7 5 -4 10 3 6 8 10 11
10 2 0 4 -4 4 -10z m1780 1 c0 -5 -40 -13 -90 -17 -106 -8 -104 -8 -107 3 -2
4 34 10 79 11 45 2 84 5 87 8 8 8 31 4 31 -5z m275 -12 c4 -6 5 -12 4 -14 -7
-7 -59 8 -59 16 0 13 47 11 55 -2z m-315 -29 c0 -5 -11 -10 -24 -10 -13 0 -45
-3 -72 -6 -34 -5 -46 -3 -39 4 16 17 135 28 135 12z m60 0 c0 -5 -9 -10 -19
-10 -11 0 -23 5 -26 10 -4 6 5 10 19 10 14 0 26 -4 26 -10z m-1848 -22 c-18
-18 -14 -30 8 -23 11 4 20 2 20 -4 0 -6 -4 -11 -9 -11 -5 0 -16 -3 -24 -6 -9
-3 -16 2 -20 15 -5 20 9 41 27 41 6 0 5 -5 -2 -12z m2108 -58 c0 -5 -4 -10
-10 -10 -5 0 -10 5 -10 10 0 6 5 10 10 10 6 0 10 -4 10 -10z m320 -10 c0 -5
-4 -10 -10 -10 -5 0 -10 5 -10 10 0 6 5 10 10 10 6 0 10 -4 10 -10z m-2477
-39 c-11 -7 -43 -69 -43 -83 0 -5 9 -7 19 -3 11 3 22 1 26 -5 4 -6 -9 -10 -35
-10 -23 0 -40 3 -38 8 2 4 12 25 22 47 22 50 49 81 54 65 3 -7 0 -15 -5 -19z
m2207 -65 c0 -3 -4 -8 -10 -11 -5 -3 -10 -1 -10 4 0 6 5 11 10 11 6 0 10 -2
10 -4z"/>
<path d="M1735 5348 c-22 -6 -50 -12 -62 -14 -13 -2 -23 -9 -23 -15 0 -7 9 -9
23 -5 12 4 55 9 95 13 39 3 72 9 72 14 0 4 -9 5 -20 2 -11 -3 -20 0 -20 6 0
13 -9 12 -65 -1z"/>
<path d="M1611 5317 c-7 -9 -20 -18 -29 -20 -9 -2 -4 -3 12 -1 34 5 40 8 34
24 -3 9 -8 7 -17 -3z"/>
<path d="M1563 5262 c-13 -2 -23 -8 -23 -13 0 -13 37 -11 45 2 9 14 5 16 -22
11z"/>
<path d="M1625 5241 c-11 -5 -24 -6 -29 -3 -5 3 -6 0 -2 -6 11 -18 56 -15 56
3 0 8 -1 15 -2 14 -2 0 -12 -4 -23 -8z"/>
<path d="M1490 5222 c-14 -2 -29 -8 -35 -13 -6 -7 6 -8 35 -3 25 4 46 8 48 9
7 6 -25 11 -48 7z"/>
<path d="M2400 5229 c0 -8 7 -23 15 -33 11 -14 15 -16 15 -5 0 8 -7 23 -15 33
-11 14 -15 16 -15 5z"/>
<path d="M1766 4944 c-9 -8 -16 -17 -16 -19 0 -9 44 13 48 23 5 17 -14 15 -32
-4z"/>
<path d="M1720 4844 c-76 -17 -87 -25 -73 -56 6 -13 8 -37 6 -54 -5 -35 14
-56 52 -56 13 0 30 -7 36 -14 14 -17 41 -18 57 -2 9 9 12 9 12 -1 0 -15 156
-9 173 8 12 12 12 12 -98 39 -57 14 -75 22 -62 27 11 5 44 0 75 -9 97 -29 101
-30 98 -12 -3 25 -43 48 -82 48 -19 0 -34 3 -34 7 0 4 -9 7 -20 7 -11 0 -20
-4 -20 -8 0 -4 -7 -8 -15 -8 -27 0 -15 15 26 34 25 11 51 16 70 12 39 -8 37 8
-7 33 -41 25 -97 26 -194 5z"/>
<path d="M2422 4677 c-12 -13 -22 -27 -22 -31 0 -4 -12 -18 -26 -33 -14 -14
-23 -32 -20 -40 3 -8 6 -28 6 -45 0 -24 3 -28 13 -19 8 6 17 8 20 4 4 -3 7 -1
7 5 0 6 10 12 23 14 28 4 30 37 2 52 -39 22 -41 46 -3 46 11 0 22 8 25 20 12
47 45 -2 58 -85 6 -39 9 -46 16 -30 4 11 8 41 8 66 2 84 -59 127 -107 76z
m-42 -103 c0 -8 -4 -12 -10 -9 -5 3 -10 10 -10 16 0 5 5 9 10 9 6 0 10 -7 10
-16z"/>
<path d="M1710 4455 c0 -29 -7 -30 -79 -13 -37 8 -57 8 -73 1 -13 -6 -31 -14
-41 -17 -23 -7 -18 -28 11 -41 11 -5 26 -20 33 -32 14 -26 50 -30 69 -8 7 8
20 15 29 15 17 0 41 19 74 59 14 18 15 25 5 41 -17 27 -28 25 -28 -5z"/>
<path d="M2140 4465 c0 -8 5 -15 10 -15 6 0 10 7 10 15 0 8 -4 15 -10 15 -5 0
-10 -7 -10 -15z"/>
<path d="M2016 4421 c-13 -14 -14 -33 -9 -101 4 -55 3 -81 -4 -77 -6 4 -20 -4
-32 -17 -26 -28 -60 -24 -125 13 -47 27 -153 61 -187 61 -13 0 -45 -3 -72 -6
-47 -6 -72 -27 -90 -77 -8 -22 10 -70 23 -62 6 4 8 11 5 16 -4 5 24 9 67 9 40
0 102 5 138 11 36 7 73 11 84 11 24 -1 56 -31 50 -47 -8 -19 34 -26 52 -8 11
11 26 14 52 10 22 -4 32 -3 23 2 -7 5 -10 14 -7 20 4 6 11 9 16 6 5 -3 12 -1
15 5 4 6 15 8 26 5 17 -6 19 -1 19 40 0 31 5 47 15 51 8 4 15 15 15 26 0 10
-4 16 -10 13 -5 -3 -10 1 -10 9 0 9 4 16 9 16 13 0 19 59 7 69 -23 18 -55 19
-70 2z m-343 -188 c-7 -2 -19 -2 -25 0 -7 3 -2 5 12 5 14 0 19 -2 13 -5z"/>
<path d="M1746 4151 c-6 -9 -83 -24 -163 -30 -7 -1 -13 -8 -13 -17 0 -26 27
-44 67 -44 84 0 147 37 136 79 -6 22 -18 27 -27 12z"/>
<path d="M3125 3469 c-4 -6 -5 -12 -2 -15 2 -3 7 2 10 11 7 17 1 20 -8 4z"/>
<path d="M2191 2721 c-14 -26 -14 -31 3 -31 24 0 38 26 22 39 -12 10 -17 8
-25 -8z"/>
<path d="M2466 2705 c-8 -23 4 -45 25 -45 22 0 23 1 7 35 -13 28 -23 32 -32
10z"/>
<path d="M2343 2670 c-3 -11 -14 -20 -25 -20 -10 0 -16 -4 -13 -10 9 -14 52
-12 52 3 0 6 4 20 8 30 4 10 3 17 -5 17 -6 0 -14 -9 -17 -20z"/>
<path d="M2150 2640 c0 -5 -3 -16 -6 -24 -5 -13 -1 -15 17 -13 30 5 37 33 9
40 -11 3 -20 1 -20 -3z"/>
<path d="M2305 2610 c-18 -8 -17 -9 8 -9 29 -1 37 -18 12 -27 -8 -4 -15 -14
-14 -23 0 -10 2 -11 6 -3 7 18 30 15 42 -5 8 -14 9 -10 5 17 -11 65 -15 69
-59 50z"/>
<path d="M2507 2612 c-5 -7 -13 -10 -18 -7 -5 4 -9 0 -9 -8 0 -14 28 -32 37
-23 3 2 3 15 1 28 -2 16 -5 19 -11 10z"/>
<path d="M2150 2550 c1 -3 7 -16 14 -29 9 -16 16 -20 20 -12 6 9 11 9 22 0 17
-14 18 -8 3 25 -9 18 -19 25 -35 24 -13 -1 -24 -5 -24 -8z"/>
<path d="M2446 2521 c-15 -16 -15 -19 -1 -31 12 -10 18 -10 30 0 8 7 15 18 15
25 0 21 -27 25 -44 6z"/>
<path d="M2400 2480 c-9 -6 -10 -10 -3 -10 6 0 15 5 18 10 8 12 4 12 -15 0z"/>
<path d="M2295 2460 c27 -12 43 -12 25 0 -8 5 -22 9 -30 9 -10 0 -8 -3 5 -9z"/>
<path d="M2344 2459 c-3 -6 2 -18 11 -27 17 -16 17 -16 11 2 -4 12 -1 23 6 28
10 6 9 8 -4 8 -9 0 -20 -5 -24 -11z"/>
<path d="M2298 2423 c7 -3 16 -2 19 1 4 3 -2 6 -13 5 -11 0 -14 -3 -6 -6z"/>
<path d="M3528 2754 c-68 -21 -95 -67 -64 -109 13 -18 15 -18 40 -2 46 31 107
129 79 126 -5 0 -29 -7 -55 -15z"/>
<path d="M3358 2643 c-41 -45 -58 -76 -58 -104 0 -31 28 -59 58 -59 19 0 22 6
23 48 0 26 4 68 8 95 4 26 5 47 1 47 -3 0 -18 -12 -32 -27z"/>
<path d="M3518 2578 c-47 -49 -73 -86 -65 -94 8 -8 97 22 125 42 22 15 28 47
16 78 -10 26 -33 18 -76 -26z"/>
<path d="M3770 2426 c0 -8 5 -18 10 -21 6 -3 10 1 10 9 0 8 -4 18 -10 21 -5 3
-10 -1 -10 -9z"/>
<path d="M3475 2283 c-6 -33 -4 -40 20 -58 14 -11 50 -41 79 -67 58 -53 82
-61 70 -25 -12 34 -10 70 4 74 6 3 12 -3 12 -13 0 -15 2 -16 13 -5 10 11 10
14 0 18 -7 3 -13 12 -13 20 0 9 -6 13 -13 10 -8 -3 -20 -1 -28 3 -8 6 -16 4
-21 -3 -4 -7 -8 3 -8 23 0 35 0 35 -13 10 -20 -41 -44 -37 -63 9 -9 23 -20 41
-24 41 -4 0 -11 -17 -15 -37z m155 -68 c0 -8 -4 -15 -9 -15 -13 0 -22 16 -14
24 11 11 23 6 23 -9z"/>
<path d="M3372 2258 c3 -7 15 -15 28 -16 21 -3 22 -2 11 12 -16 19 -44 21 -39
4z"/>
<path d="M290 2059 c-47 -4 -98 -5 -115 -2 -26 4 -32 0 -43 -27 -8 -17 -11
-38 -8 -47 4 -8 1 -22 -5 -29 -18 -22 -4 -17 52 17 28 18 55 42 60 55 8 23 13
24 96 24 61 0 83 3 73 10 -8 5 -17 9 -20 8 -3 0 -43 -4 -90 -9z"/>
<path d="M1482 2108 c-17 -17 -15 -83 3 -98 36 -30 77 28 54 76 -16 32 -38 41
-57 22z"/>
<path d="M1738 2087 c-28 -22 -33 -62 -9 -86 38 -38 91 -17 91 36 0 50 -45 77
-82 50z"/>
<path d="M1662 2068 c-15 -15 -15 -29 2 -51 12 -15 13 -13 12 23 0 22 -1 40
-1 40 -1 0 -6 -5 -13 -12z"/>
<path d="M2086 2024 c-9 -22 -8 -24 9 -24 8 0 15 9 15 20 0 24 -15 27 -24 4z"/>
<path d="M2485 2019 c-4 -11 -4 -23 -2 -26 9 -8 27 7 27 22 0 23 -18 27 -25 4z"/>
<path d="M2281 1816 c-7 -8 -8 -17 -3 -20 6 -3 15 1 21 8 7 8 8 17 3 20 -6 3
-15 -1 -21 -8z"/>
</g>
</svg>
